<svg xmlns="http://www.w3.org/2000/svg" version="1.1" xmlns:xlink="http://www.w3.org/1999/xlink" xmlns:svgjs="http://svgjs.dev/svgjs" width="1000" height="623" viewBox="0 0 1000 623"><g transform="matrix(1,0,0,1,-0.6060606060606233,0.2522267206477409)"><svg viewBox="0 0 396 247" data-background-color="#ffffff" preserveAspectRatio="xMidYMid meet" height="623" width="1000" xmlns="http://www.w3.org/2000/svg" xmlns:xlink="http://www.w3.org/1999/xlink"><g id="tight-bounds" transform="matrix(1,0,0,1,0.2400000000000091,-0.09999999999999432)"><svg viewBox="0 0 395.52 247.2" height="247.2" width="395.52"><g><svg></svg></g><g><svg viewBox="0 0 395.52 247.2" height="247.2" width="395.52"><g><path xmlns="http://www.w3.org/2000/svg" d="M55.039 247.2l26.403-45.732h2.292l-25.194 43.638h278.44l-25.194-43.638 2.292 0 26.403 45.732zM197.76 0l26.403 45.732-2.291 0-24.112-41.762-24.112 41.762-2.291 0z" fill="#ff0000" fill-rule="nonzero" stroke="none" stroke-width="1" stroke-linecap="butt" stroke-linejoin="miter" stroke-miterlimit="10" stroke-dasharray="" stroke-dashoffset="0" font-family="none" font-weight="none" font-size="none" text-anchor="none" style="mix-blend-mode: normal" data-fill-palette-color="tertiary"></path></g><g transform="matrix(1,0,0,1,24.74521807900456,67.97999999999999)"><svg viewBox="0 0 346.02956384199086 111.24" height="111.24" width="346.02956384199086"><g><svg viewBox="0 0 346.02956384199086 111.24" height="111.24" width="346.02956384199086"><g><svg viewBox="0 0 395.52 127.14995884019567" height="111.24" width="346.02956384199086"><g transform="matrix(1,0,0,1,0,88.72534760727275)"><svg viewBox="0 0 395.52 38.42461123292292" height="38.42461123292292" width="395.52"><g id="textblocktransform"><svg viewBox="0 0 395.52 38.42461123292292" height="38.42461123292292" width="395.52" id="textblock"><g><svg viewBox="0 0 395.52 38.42461123292292" height="38.42461123292292" width="395.52"><g transform="matrix(1,0,0,1,0,0)"><svg width="395.52" viewBox="2.2699999809265137 -40.43000030517578 434.2300109863281 42.189998626708984" height="38.42461123292292" data-palette-color="#ff0000"><path d="M15.94-17.38L15.94-19.14 26.15-19.14Q28.66-19.14 30.41-20.84 32.15-22.53 32.15-25.63L32.15-25.63Q32.15-27.95 30.32-29.8 28.49-31.64 26.15-31.64L26.15-31.64 11.06-31.64 11.06 0 9.3 0 9.3-33.4 26.15-33.4Q29.22-33.4 31.57-31.03 33.91-28.66 33.91-25.63L33.91-25.63Q33.91-21.9 31.64-19.64 29.37-17.38 26.15-17.38L26.15-17.38 15.94-17.38ZM15.94-13.87L15.94-15.63 26.15-15.63Q28.69-15.63 30.85-16.86 33.01-18.09 34.34-20.41 35.67-22.73 35.67-25.63L35.67-25.63Q35.67-29.39 32.8-32.28 29.93-35.16 26.15-35.16L26.15-35.16 7.54-35.16 7.54 0 5.79 0 5.79-36.91 26.15-36.91Q29.1-36.91 31.71-35.35 34.33-33.79 35.88-31.18 37.43-28.56 37.43-25.63L37.43-25.63Q37.43-22.31 35.86-19.59 34.3-16.87 31.73-15.37 29.15-13.87 26.15-13.87L26.15-13.87 15.94-13.87ZM15.94-10.35L15.94-12.11 26.15-12.11Q28.76-12.11 31.15-13.15 33.54-14.18 35.31-15.95 37.08-17.72 38.13-20.25 39.18-22.78 39.18-25.63L39.18-25.63Q39.18-29.05 37.4-32.07 35.62-35.08 32.6-36.88 29.59-38.67 26.15-38.67L26.15-38.67 4.03-38.67 4.03 0 2.27 0 2.27-40.43 26.15-40.43Q30.05-40.43 33.47-38.39 36.89-36.35 38.92-32.93 40.94-29.52 40.94-25.63L40.94-25.63Q40.94-22.17 39.75-19.25 38.55-16.33 36.52-14.4 34.5-12.48 31.81-11.41 29.13-10.35 26.15-10.35L26.15-10.35 15.94-10.35ZM14.58-28.13L14.58 0 12.82 0 12.82-29.88 26.15-29.88Q27.88-29.88 29.14-28.61 30.4-27.34 30.4-25.63L30.4-25.63Q30.4-20.9 26.15-20.9L26.15-20.9 15.94-20.9 15.94-22.66 26.15-22.66Q27.32-22.66 27.98-23.32 28.64-23.97 28.64-25.63L28.64-25.63Q28.64-26.71 27.92-27.42 27.2-28.13 26.15-28.13L26.15-28.13 14.58-28.13ZM58.08-15.04L58.08-16.8 68.67-16.8Q70.77-16.8 72.24-18.12 73.7-19.43 73.7-21.83L73.7-21.83Q73.7-23.58 72.18-24.98 70.65-26.37 68.67-26.37L68.67-26.37 53.59-26.37 53.59 0 51.83 0 51.83-28.13 68.67-28.13Q71.38-28.13 73.42-26.22 75.46-24.32 75.46-21.83L75.46-21.83Q75.46-18.73 73.48-16.88 71.51-15.04 68.67-15.04L68.67-15.04 58.08-15.04ZM58.08-11.52L58.08-13.28 68.67-13.28Q72.19-13.28 74.7-15.67 77.22-18.07 77.22-21.83L77.22-21.83Q77.22-25.02 74.66-27.45 72.09-29.88 68.67-29.88L68.67-29.88 50.07-29.88 50.07 0 48.31 0 48.31-31.64 68.67-31.64Q72.82-31.64 75.9-28.7 78.98-25.76 78.98-21.83L78.98-21.83Q78.98-17.43 75.94-14.48 72.9-11.52 68.67-11.52L68.67-11.52 58.08-11.52ZM58.08-8.01L58.08-9.77 68.67-9.77Q71.92-9.77 74.68-11.33 77.44-12.89 79.09-15.67 80.73-18.46 80.73-21.83L80.73-21.83Q80.73-24.88 79.1-27.55 77.46-30.22 74.67-31.81 71.87-33.4 68.67-33.4L68.67-33.4 46.56-33.4 46.56 0 44.8 0 44.8-35.16 68.67-35.16Q71.43-35.16 73.98-34.07 76.54-32.98 78.39-31.19 80.25-29.39 81.37-26.93 82.49-24.46 82.49-21.83L82.49-21.83Q82.49-17.55 80.54-14.37 78.59-11.18 75.29-9.52L75.29-9.52 78.98 0 77.1 0 73.61-8.81Q72.95-8.59 72.07-8.37L72.07-8.37 75.36 0 73.48 0 70.26-8.08Q69.5-8.01 68.67-8.01L68.67-8.01 71.77 0 69.92 0 66.84-8.01 65.26-8.01 68.21 0 66.35 0 63.38-8.01 58.08-8.01ZM57.1-22.85L57.1 0 55.34 0 55.34-24.61 68.67-24.61Q70.04-24.61 70.99-23.79 71.95-22.97 71.95-21.83L71.95-21.83Q71.95-18.55 68.67-18.55L68.67-18.55 58.08-18.55 58.08-20.31 68.67-20.31Q70.19-20.31 70.19-21.83L70.19-21.83Q70.19-22.24 69.74-22.55 69.28-22.85 68.67-22.85L68.67-22.85 57.1-22.85ZM96.92 0L96.92-35.16 98.68-35.16 98.68 0 96.92 0ZM93.4 0L93.4-35.16 95.16-35.16 95.16 0 93.4 0ZM89.89 0L89.89-35.16 91.65-35.16 91.65 0 89.89 0ZM86.37 0L86.37-35.16 88.13-35.16 88.13 0 86.37 0ZM131-35.16L131-14.18 129.24-17.38 129.24-35.16 131-35.16ZM134.51-35.16L134.51-8.11 132.76-11.08 132.76-35.16 134.51-35.16ZM110.3 0L110.3-20.97 112.05-17.77 112.05 0 110.3 0ZM106.78 0L106.78-27.29 108.54-24.07 108.54 0 106.78 0ZM127.75 0L107.39-35.16 109.44-35.16 129.8 0 127.75 0ZM131.85 0L111.54-35.16 113.62-35.16 133.95 0 131.85 0ZM135.95 0L115.67-35.16 117.72-35.16 136.27-3.05 136.27-35.16 138.03-35.16 138.03 0 135.95 0ZM123.63 0L105.02-32.13 105.02 0 103.26 0 103.26-35.16 105.36-35.16 125.65 0 123.63 0ZM167.91-23.05L167.91-23.05 166.49-21.97Q164.37-24.61 161.03-24.61L161.03-24.61Q158.12-24.61 156.06-22.55 153.99-20.48 153.99-17.58 153.99-14.67 156.06-12.61 158.12-10.55 161.03-10.55L161.03-10.55Q162.66-10.55 164.09-11.25 165.52-11.96 166.52-13.21L166.52-13.21 167.89-12.06Q166.66-10.52 164.86-9.66 163.05-8.79 161.03-8.79L161.03-8.79Q157.39-8.79 154.81-11.36 152.24-13.94 152.24-17.58 152.24-21.22 154.81-23.79 157.39-26.37 161.03-26.37L161.03-26.37Q163.08-26.37 164.88-25.48 166.69-24.58 167.91-23.05ZM170.64-25.24L170.64-25.24 169.25-24.17Q167.79-26.03 165.63-27.08 163.47-28.13 161.03-28.13L161.03-28.13Q156.66-28.13 153.57-25.02 150.48-21.92 150.48-17.58 150.48-13.23 153.57-10.13 156.66-7.03 161.03-7.03L161.03-7.03Q163.47-7.03 165.64-8.09 167.81-9.16 169.28-11.01L169.28-11.01 170.62-9.89Q168.91-7.74 166.4-6.51 163.88-5.27 161.03-5.27L161.03-5.27Q157.68-5.27 154.85-6.92 152.02-8.57 150.37-11.4 148.72-14.23 148.72-17.58 148.72-20.92 150.37-23.75 152.02-26.59 154.85-28.23 157.68-29.88 161.03-29.88L161.03-29.88Q163.88-29.88 166.41-28.65 168.94-27.42 170.64-25.24ZM173.4-27.44L173.4-27.44 172.04-26.34Q170.06-28.81 167.18-30.22 164.3-31.64 161.03-31.64L161.03-31.64Q158.17-31.64 155.57-30.53 152.97-29.42 151.08-27.53 149.18-25.63 148.07-23.03 146.96-20.43 146.96-17.58 146.96-14.72 148.07-12.12 149.18-9.52 151.08-7.63 152.97-5.74 155.57-4.63 158.17-3.52 161.03-3.52L161.03-3.52Q164.3-3.52 167.18-4.93 170.06-6.35 172.04-8.81L172.04-8.81 173.35-7.67Q171.13-4.91 167.91-3.33 164.69-1.76 161.03-1.76L161.03-1.76Q157.8-1.76 154.87-3.02 151.94-4.27 149.83-6.38 147.72-8.5 146.46-11.43 145.2-14.36 145.2-17.58 145.2-20.8 146.46-23.73 147.72-26.66 149.83-28.77 151.94-30.88 154.87-32.14 157.8-33.4 161.03-33.4L161.03-33.4Q164.71-33.4 167.95-31.81 171.18-30.22 173.4-27.44ZM176.14-29.64L176.14-29.64 174.72-28.59Q172.26-31.64 168.68-33.4 165.1-35.16 161.03-35.16L161.03-35.16Q157.46-35.16 154.2-33.76 150.94-32.37 148.59-30.02 146.23-27.66 144.84-24.4 143.45-21.14 143.45-17.58 143.45-14.01 144.84-10.75 146.23-7.5 148.59-5.14 150.94-2.78 154.2-1.39 157.46 0 161.03 0L161.03 0Q165.1 0 168.68-1.76 172.26-3.52 174.72-6.57L174.72-6.57 176.11-5.49Q173.4-2.12 169.46-0.18 165.52 1.76 161.03 1.76L161.03 1.76Q157.09 1.76 153.52 0.22 149.94-1.32 147.35-3.91 144.77-6.49 143.23-10.07 141.69-13.65 141.69-17.58 141.69-21.51 143.23-25.09 144.77-28.66 147.35-31.25 149.94-33.84 153.52-35.38 157.09-36.91 161.03-36.91L161.03-36.91Q165.52-36.91 169.47-34.97 173.43-33.03 176.14-29.64ZM188.24-35.16L188.24 0 186.49 0 186.49-35.16 188.24-35.16ZM184.73-35.16L184.73 0 182.97 0 182.97-35.16 184.73-35.16ZM181.21-35.16L181.21 0 179.46 0 179.46-35.16 181.21-35.16ZM191.76-13.21L191.76-8.79 208.58-8.79 208.58-7.03 191.76-7.03 191.76-5.27 208.58-5.27 208.58-3.52 191.76-3.52 191.76-1.76 208.58-1.76 208.58 0 190 0 190-35.16 208.58-35.16 208.58-33.4 191.76-33.4 191.76-31.64 208.58-31.64 208.58-29.88 191.76-29.88 191.76-28.13 208.58-28.13 208.58-26.37 191.76-26.37 191.76-22 207.6-22 207.6-20.24 191.76-20.24 191.76-18.48 207.6-18.48 207.6-16.72 191.76-16.72 191.76-14.97 207.6-14.97 207.6-13.21 191.76-13.21ZM230.52-40.43L230.52 0 228.77 0 228.77-40.43 230.52-40.43ZM227.01-40.43L227.01 0 225.25 0 225.25-40.43 227.01-40.43ZM223.49-40.43L223.49 0 221.74 0 221.74-40.43 223.49-40.43ZM219.98-40.43L219.98 0 218.22 0 218.22-40.43 219.98-40.43ZM253.69 0L243.37-20.21 253.69-40.43 255.65-40.43 245.32-20.21 255.65 0 253.69 0ZM249.76 0L239.44-20.21 249.76-40.43 251.72-40.43 241.39-20.21 251.72 0 249.76 0ZM245.83 0L235.5-20.21 245.83-40.43 247.79-40.43 237.46-20.21 247.79 0 245.83 0ZM241.9 0L231.55-20.21 241.9-40.43 243.85-40.43 233.5-20.21 243.85 0 241.9 0ZM282.08-15.58L282.08-15.58 282.08-35.16 283.84-35.16 283.84-15.58Q283.84-12.79 281.71-10.79 279.57-8.79 276.57-8.79 273.56-8.79 271.43-10.79 269.29-12.79 269.29-15.58L269.29-15.58 269.29-35.16 271.05-35.16 271.05-15.58Q271.05-13.5 272.67-12.02 274.3-10.55 276.57-10.55 278.84-10.55 280.46-12.02 282.08-13.5 282.08-15.58ZM285.6-15.58L285.6-15.58 285.6-35.16 287.36-35.16 287.36-15.58Q287.36-11.3 284.18-8.29 281.01-5.27 276.57-5.27 272.12-5.27 268.95-8.29 265.78-11.3 265.78-15.58L265.78-15.58 265.78-35.16 267.53-35.16 267.53-15.58Q267.53-12.04 270.18-9.53 272.83-7.03 276.57-7.03L276.57-7.03Q280.28-7.03 282.94-9.53 285.6-12.04 285.6-15.58ZM289.12-15.58L289.12-15.58 289.12-35.16 290.87-35.16 290.87-15.58Q290.87-11.84 288.94-8.65 287.02-5.47 283.72-3.61 280.42-1.76 276.57-1.76 272.71-1.76 269.41-3.61 266.12-5.47 264.19-8.65 262.26-11.84 262.26-15.58L262.26-15.58 262.26-35.16 264.02-35.16 264.02-15.58Q264.02-12.33 265.7-9.55 267.39-6.76 270.28-5.14 273.17-3.52 276.57-3.52 279.96-3.52 282.85-5.14 285.75-6.76 287.43-9.55 289.12-12.33 289.12-15.58ZM292.63-15.58L292.63-15.58 292.63-35.16 294.39-35.16 294.39-15.58Q294.39-12.06 292.97-8.85 291.56-5.64 289.16-3.32 286.77-1 283.48 0.38 280.18 1.76 276.57 1.76 272.95 1.76 269.66 0.38 266.36-1 263.97-3.32 261.58-5.64 260.16-8.85 258.74-12.06 258.74-15.58L258.74-15.58 258.74-35.16 260.5-35.16 260.5-15.58Q260.5-11.38 262.66-7.79 264.82-4.2 268.52-2.1 272.22 0 276.57 0 280.91 0 284.61-2.1 288.31-4.2 290.47-7.79 292.63-11.38 292.63-15.58ZM321.27-21.97L321.27-21.97 321.27 0 319.51 0 319.51-21.97Q319.51-22.68 319.28-23.18 319.04-23.68 318.68-23.95 318.31-24.22 317.71-24.38 317.12-24.54 316.55-24.57 315.99-24.61 315.16-24.61 314.33-24.61 313.77-24.57 313.21-24.54 312.61-24.38 312.01-24.22 311.65-23.95 311.28-23.68 311.05-23.18 310.82-22.68 310.82-21.97L310.82-21.97 310.82 0 309.06 0 309.06-21.97Q309.06-26.37 315.16-26.37 321.27-26.37 321.27-21.97ZM324.78-21.97L324.78-21.97 324.78 0 323.02 0 323.02-21.97Q323.02-25.07 320.84-26.6 318.65-28.13 315.16-28.13 311.67-28.13 309.49-26.6 307.3-25.07 307.3-21.97L307.3-21.97 307.3 0 305.54 0 305.54-21.97Q305.54-24.54 306.86-26.37 308.18-28.2 310.32-29.04 312.45-29.88 315.16-29.88 317.87-29.88 320.01-29.04 322.15-28.2 323.46-26.37 324.78-24.54 324.78-21.97ZM328.3-21.97L328.3-21.97 328.3 0 326.54 0 326.54-21.97Q326.54-24.27 325.65-26.12 324.76-27.98 323.2-29.17 321.63-30.37 319.58-31.01 317.53-31.64 315.16-31.64 312.79-31.64 310.74-31.01 308.69-30.37 307.13-29.17 305.57-27.98 304.68-26.12 303.79-24.27 303.79-21.97L303.79-21.97 303.79 0 302.03 0 302.03-21.97Q302.03-24.63 303.07-26.81 304.1-28.98 305.89-30.41 307.67-31.84 310.06-32.62 312.45-33.4 315.16-33.4 317.87-33.4 320.27-32.62 322.66-31.84 324.44-30.41 326.22-28.98 327.26-26.81 328.3-24.63 328.3-21.97ZM331.81-21.97L331.81 0 330.06 0 330.06-21.97Q330.06-24.63 328.87-27.08 327.69-29.52 325.69-31.29 323.68-33.06 320.92-34.11 318.17-35.16 315.16-35.16L315.16-35.16Q311.04-35.16 307.68-33.61 304.32-32.06 302.3-29.02 300.27-25.98 300.27-21.97L300.27-21.97 300.27 0 298.51 0 298.51-21.97Q298.51-25.34 299.83-28.17 301.15-31.01 303.41-32.91 305.67-34.81 308.71-35.86 311.75-36.91 315.16-36.91L315.16-36.91Q321.22-36.91 325.66-33.86L325.66-33.86Q330.1-36.91 336.16-36.91L336.16-36.91Q339.58-36.91 342.62-35.86 345.66-34.81 347.91-32.91 350.17-31.01 351.49-28.17 352.81-25.34 352.81-21.97L352.81-21.97 352.81 0 351.05 0 351.05-21.97Q351.05-25.95 349.03-28.99 347-32.03 343.64-33.59 340.29-35.16 336.16-35.16L336.16-35.16Q330.98-35.16 327.13-32.71L327.13-32.71Q327.69-32.23 328.37-31.45L328.37-31.45Q331.72-33.4 336.16-33.4L336.16-33.4Q338.87-33.4 341.26-32.62 343.65-31.84 345.44-30.41 347.22-28.98 348.26-26.81 349.29-24.63 349.29-21.97L349.29-21.97 349.29 0 347.54 0 347.54-21.97Q347.54-24.27 346.64-26.12 345.75-27.98 344.19-29.17 342.63-30.37 340.58-31.01 338.53-31.64 336.16-31.64L336.16-31.64Q332.28-31.64 329.45-30.05L329.45-30.05Q329.88-29.37 330.32-28.54L330.32-28.54Q332.72-29.88 336.16-29.88L336.16-29.88Q338.87-29.88 341.01-29.04 343.14-28.2 344.46-26.37 345.78-24.54 345.78-21.97L345.78-21.97 345.78 0 344.02 0 344.02-21.97Q344.02-25.07 341.84-26.6 339.65-28.13 336.16-28.13L336.16-28.13Q332.99-28.13 331.01-26.95L331.01-26.95Q331.33-26.03 331.5-25.2L331.5-25.2Q333.03-26.37 336.16-26.37L336.16-26.37Q342.26-26.37 342.26-21.97L342.26-21.97 342.26 0 340.5 0 340.5-21.97Q340.5-22.68 340.27-23.18 340.04-23.68 339.67-23.95 339.31-24.22 338.71-24.38 338.11-24.54 337.55-24.57 336.99-24.61 336.16-24.61 335.33-24.61 334.77-24.57 334.21-24.54 333.61-24.38 333.01-24.22 332.64-23.95 332.28-23.68 332.05-23.18 331.81-22.68 331.81-21.97L331.81-21.97ZM382.15 0L382.15-17.33Q382.15-20.46 380.22-22.17 378.3-23.88 375.12-23.88L375.12-23.88Q372.44-23.88 370.51-22.02 368.58-20.17 368.58-17.58L368.58-17.58Q368.58-16.11 368.97-14.95 369.36-13.79 370.03-13.02 370.7-12.26 371.63-11.76 372.56-11.25 373.57-11.04 374.58-10.82 375.73-10.82L375.73-10.82Q378.52-10.82 380.81-12.18L380.81-12.18 380.81-10.42Q378.44-9.18 375.71-9.18L375.71-9.18Q373.95-9.18 372.4-9.66 370.85-10.13 369.58-11.1 368.31-12.06 367.57-13.73 366.82-15.41 366.82-17.58L366.82-17.58Q366.82-20.95 369.19-23.29 371.56-25.63 375.12-25.63L375.12-25.63Q379.05-25.63 381.48-23.43 383.91-21.22 383.91-17.33L383.91-17.33 383.91 0 382.15 0ZM387.43-17.33L387.43-17.33 387.43 0 385.67 0 385.67-17.33Q385.67-21.95 382.71-24.67 379.76-27.39 375.12-27.39L375.12-27.39Q370.82-27.39 367.94-24.54 365.06-21.68 365.06-17.58L365.06-17.58Q365.06-15.09 365.93-13.11 366.8-11.13 368.29-9.94 369.77-8.74 371.62-8.12 373.46-7.5 375.51-7.5L375.51-7.5Q378.3-7.5 380.81-8.79L380.81-8.79 380.81-6.93Q378.17-5.83 375.49-5.83L375.49-5.83Q373.07-5.83 370.9-6.58 368.73-7.32 367.02-8.75 365.31-10.18 364.31-12.46 363.31-14.75 363.31-17.58L363.31-17.58Q363.31-22.39 366.71-25.77 370.12-29.15 375.12-29.15L375.12-29.15Q378.64-29.15 381.42-27.72 384.2-26.29 385.81-23.58 387.43-20.87 387.43-17.33ZM390.94-17.33L390.94-17.33 390.94 0 389.18 0 389.18-17.33Q389.18-21.36 387.34-24.48 385.5-27.59 382.3-29.25 379.1-30.91 375.12-30.91L375.12-30.91Q371.34-30.91 368.21-29.11 365.09-27.32 363.32-24.27 361.55-21.22 361.55-17.58L361.55-17.58Q361.55-14.45 362.69-11.88 363.84-9.3 365.78-7.64 367.72-5.98 370.2-5.07 372.68-4.15 375.39-4.15L375.39-4.15Q378.15-4.15 380.81-5.3L380.81-5.3 380.81-3.52Q378.03-2.47 375.34-2.47L375.34-2.47Q371.12-2.47 367.58-4.37 364.04-6.27 361.91-9.77 359.79-13.26 359.79-17.58L359.79-17.58Q359.79-20.65 360.97-23.44 362.16-26.22 364.18-28.25 366.21-30.27 369.07-31.47 371.92-32.67 375.12-32.67L375.12-32.67Q379.59-32.67 383.19-30.76 386.79-28.86 388.87-25.34 390.94-21.83 390.94-17.33ZM394.46-17.33L394.46-17.33 394.46 0 392.7 0 392.7-17.33Q392.7-22.31 390.38-26.23 388.06-30.15 384.06-32.29 380.05-34.42 375.12-34.42L375.12-34.42Q370.39-34.42 366.45-32.15 362.52-29.88 360.28-26.01 358.03-22.14 358.03-17.58L358.03-17.58Q358.03-14.58 359-11.88 359.96-9.18 361.63-7.17 363.31-5.15 365.49-3.69 367.68-2.22 370.2-1.46 372.73-0.71 375.34-0.71L375.34-0.71Q378.22-0.71 380.81-1.81L380.81-1.81 380.81 0Q378.1 0.95 375.24 0.95L375.24 0.95Q372.29 0.95 369.49 0.12 366.7-0.71 364.32-2.33 361.94-3.96 360.13-6.16 358.32-8.37 357.3-11.33 356.27-14.28 356.27-17.58L356.27-17.58Q356.27-21.36 357.7-24.79 359.13-28.22 361.61-30.73 364.09-33.23 367.61-34.7 371.14-36.18 375.12-36.18L375.12-36.18Q379.17-36.18 382.74-34.81 386.3-33.45 388.89-31.02 391.48-28.59 392.97-25.05 394.46-21.51 394.46-17.33ZM412.08-15.04L412.08-16.8 422.68-16.8Q424.78-16.8 426.24-18.12 427.71-19.43 427.71-21.83L427.71-21.83Q427.71-23.58 426.18-24.98 424.66-26.37 422.68-26.37L422.68-26.37 407.59-26.37 407.59 0 405.83 0 405.83-28.13 422.68-28.13Q425.39-28.13 427.43-26.22 429.46-24.32 429.46-21.83L429.46-21.83Q429.46-18.73 427.49-16.88 425.51-15.04 422.68-15.04L422.68-15.04 412.08-15.04ZM412.08-11.52L412.08-13.28 422.68-13.28Q426.19-13.28 428.71-15.67 431.22-18.07 431.22-21.83L431.22-21.83Q431.22-25.02 428.66-27.45 426.1-29.88 422.68-29.88L422.68-29.88 404.07-29.88 404.07 0 402.32 0 402.32-31.64 422.68-31.64Q426.83-31.64 429.9-28.7 432.98-25.76 432.98-21.83L432.98-21.83Q432.98-17.43 429.94-14.48 426.9-11.52 422.68-11.52L422.68-11.52 412.08-11.52ZM412.08-8.01L412.08-9.77 422.68-9.77Q425.92-9.77 428.68-11.33 431.44-12.89 433.09-15.67 434.74-18.46 434.74-21.83L434.74-21.83Q434.74-24.88 433.1-27.55 431.47-30.22 428.67-31.81 425.88-33.4 422.68-33.4L422.68-33.4 400.56-33.4 400.56 0 398.8 0 398.8-35.16 422.68-35.16Q425.44-35.16 427.99-34.07 430.54-32.98 432.39-31.19 434.25-29.39 435.37-26.93 436.5-24.46 436.5-21.83L436.5-21.83Q436.5-17.55 434.54-14.37 432.59-11.18 429.29-9.52L429.29-9.52 432.98 0 431.1 0 427.61-8.81Q426.95-8.59 426.07-8.37L426.07-8.37 429.37 0 427.49 0 424.26-8.08Q423.51-8.01 422.68-8.01L422.68-8.01 425.78 0 423.92 0 420.85-8.01 419.26-8.01 422.21 0 420.36 0 417.38-8.01 412.08-8.01ZM411.11-22.85L411.11 0 409.35 0 409.35-24.61 422.68-24.61Q424.04-24.61 425-23.79 425.95-22.97 425.95-21.83L425.95-21.83Q425.95-18.55 422.68-18.55L422.68-18.55 412.08-18.55 412.08-20.31 422.68-20.31Q424.19-20.31 424.19-21.83L424.19-21.83Q424.19-22.24 423.74-22.55 423.29-22.85 422.68-22.85L422.68-22.85 411.11-22.85Z" opacity="1" transform="matrix(1,0,0,1,0,0)" fill="#ff0000" class="undefined-text-0" data-fill-palette-color="primary" id="text-0"></path></svg></g></svg></g></svg></g></svg></g><g transform="matrix(1,0,0,1,157.93244817672138,0)"><svg viewBox="0 0 79.6551036465572 79.65421908584923" height="79.65421908584923" width="79.6551036465572"><g><svg xmlns="http://www.w3.org/2000/svg" xmlns:xlink="http://www.w3.org/1999/xlink" version="1.1" x="0" y="0" viewBox="4.9670000076293945 5 90.0009994506836 90" enable-background="new 0 0 100 100" xml:space="preserve" height="79.65421908584923" width="79.6551036465572" class="icon-icon-0" data-fill-palette-color="accent" id="icon-0"><g fill="#ed2647" data-fill-palette-color="accent"><polygon points="81.588,69.219 76.042,77.733 49.901,5 30.566,58.797 24.486,43.546 4.967,95 17.555,95 45,95 64.794,95 82.249,95    94.968,95  " fill="#ed2647" data-fill-palette-color="accent"></polygon></g></svg></g></svg></g><g></g></svg></g></svg></g></svg></g></svg></g><defs></defs></svg><rect width="395.52" height="247.2" fill="none" stroke="none" visibility="hidden"></rect></g></svg></g></svg>